<?xml version="1.0" encoding="utf-8"?>
<!-- Generator: Adobe Illustrator 22.1.0, SVG Export Plug-In . SVG Version: 6.00 Build 0)  -->
<svg version="1.1" id="_x38_8ce59e9-c4b8-4d1d-9d7a-ce0190159aa8"
	 xmlns="http://www.w3.org/2000/svg" xmlns:xlink="http://www.w3.org/1999/xlink" x="0px" y="0px" viewBox="0 0 237.5 234.4"
	 style="enable-background:new 0 0 237.5 234.4;" xml:space="preserve">
<style type="text/css">
	.st0{opacity:0.5;}
	.st1{fill:url(#SVGID_1_);}
	.st2{fill:#F5F5F5;}
	.st3{fill:#474954;}
	.st4{fill:#333333;}
	.st5{opacity:0.1;enable-background:new    ;}
	.st6{fill:#BE7C5E;}
	.st7{fill:url(#SVGID_2_);}
	.st8{fill:#F55F44;}
	.st9{fill:#FDA57D;}
	.st10{fill:url(#SVGID_3_);}
	.st11{fill:url(#SVGID_4_);}
	.st12{fill:#72351C;}
	.st13{fill:url(#SVGID_5_);}
	.st14{fill:#FDB797;}
	.st15{fill:url(#SVGID_6_);}
	.st16{fill:none;stroke:#333333;stroke-width:2;stroke-miterlimit:10;}
	.st17{fill:#858585;}
	.st18{fill:none;stroke:#333333;stroke-width:2;stroke-linecap:round;stroke-linejoin:round;}
	.st19{fill:url(#SVGID_7_);}
	.st20{fill:#FDD835;}
	.st21{fill:url(#SVGID_8_);}
</style>
<g class="st0">
	
		<linearGradient id="SVGID_1_" gradientUnits="userSpaceOnUse" x1="119.03" y1="-522.44" x2="119.03" y2="-290.66" gradientTransform="matrix(1 0 0 -1 0 -288)">
		<stop  offset="0" style="stop-color:#808080;stop-opacity:0.25"/>
		<stop  offset="0.54" style="stop-color:#808080;stop-opacity:0.12"/>
		<stop  offset="1" style="stop-color:#808080;stop-opacity:0.1"/>
	</linearGradient>
	<circle class="st1" cx="119" cy="118.5" r="115.9"/>
</g>
<circle class="st2" cx="119.3" cy="117.8" r="113.4"/>
<path class="st4" d="M181.7,129c0,37.7-27.1,56.3-62.3,56.3S54.2,166.7,54.2,129s28.5-68.3,63.7-68.3S181.7,91.2,181.7,129z"/>
<path class="st3" d="M119.4,231.7c22.2,0,43.9-6.5,62.4-18.7c-4.2-22.8-20.1-24.2-20.1-24.2H73.9c0,0-15,1.2-19.7,22.3
	C73.3,224.6,96,231.7,119.4,231.7z"/>
<path class="st5" d="M100.5,161h35.1l0,0v28.1c0,9.7-7.8,17.6-17.5,17.6c0,0,0,0-0.1,0l0,0c-9.7,0-17.5-7.9-17.5-17.5L100.5,161
	L100.5,161z"/>
<path class="st9" d="M103.8,159.7h28.4c1.9,0,3.4,1.5,3.4,3.3v24.7c0,9.7-7.9,17.5-17.5,17.5c0,0,0,0,0,0l0,0
	c-9.7,0-17.5-7.9-17.5-17.5v-24.7C100.5,161.2,102,159.7,103.8,159.7L103.8,159.7z"/>
<path class="st5" d="M100.6,174.3c11.3,4.2,23.8,4.3,35.1,0.1v-4.3h-35.1V174.3z"/>
<circle class="st9" cx="118.2" cy="126.3" r="50.3"/>
<path class="st5" d="M60.2,129.6c0,0,31.3-3.8,55-34.2c0,0,31.3,34.5,53.1,30.7c0,0,12.7-13.3,0-26.6s-22.5-30-39.2-27.8
	s-37.3,3.2-46.2,11.1S60.2,129.6,60.2,129.6z"/>
<path class="st4" d="M60.2,129c0,0,31.3-3.8,55-34.2c0,0,31.3,34.5,53.1,30.7c0,0,12.7-13.3,0-26.6s-22.5-30-39.2-27.8
	S91.8,74.2,83,82.2S60.2,129,60.2,129z"/>
<ellipse class="st9" cx="67.9" cy="126.3" rx="4.7" ry="8.8"/>
<ellipse class="st9" cx="168.4" cy="126.3" rx="4.7" ry="8.8"/>
</svg>
